<?xml version="1.0" standalone="no"?>
<!DOCTYPE svg PUBLIC "-//W3C//DTD SVG 20010904//EN"
 "http://www.w3.org/TR/2001/REC-SVG-20010904/DTD/svg10.dtd">
<svg version="1.0" xmlns="http://www.w3.org/2000/svg"
 width="4096.000000pt" height="4096.000000pt" viewBox="0 0 4096.000000 4096.000000"
 preserveAspectRatio="xMidYMid meet">
<metadata>
Created by potrace 1.14, written by Peter Selinger 2001-2017
</metadata>
<g transform="translate(0.000000,4096.000000) scale(0.100000,-0.100000)"
fill="#000000" stroke="none">
<path d="M19700 40950 c-972 -42 -1877 -139 -2765 -295 -3392 -599 -6554
-2027 -9248 -4178 -598 -477 -1092 -921 -1688 -1516 -595 -596 -1039 -1090
-1516 -1688 -2657 -3329 -4210 -7381 -4453 -11618 -41 -723 -41 -1627 0 -2350
250 -4368 1904 -8562 4699 -11919 425 -510 765 -882 1270 -1387 384 -384 626
-612 971 -915 3367 -2956 7615 -4726 12100 -5038 508 -36 685 -41 1410 -41
725 0 902 5 1410 41 3551 247 6958 1405 9920 3371 768 510 1532 1095 2214
1697 694 613 1401 1329 1987 2012 1803 2103 3153 4522 3985 7139 499 1568 804
3166 918 4805 36 508 41 685 41 1410 0 725 -5 902 -41 1410 -201 2885 -1009
5701 -2364 8235 -831 1556 -1825 2952 -3039 4270 -231 251 -875 895 -1126
1126 -2502 2300 -5443 3912 -8710 4773 -1354 357 -2646 556 -4200 647 -230 13
-1518 20 -1775 9z m4010 -8191 c269 -33 485 -113 702 -258 508 -342 769 -976
644 -1568 -27 -126 -6185 -21671 -6221 -21765 -101 -260 -282 -499 -511 -672
-103 -77 -321 -190 -444 -229 -457 -145 -932 -77 -1332 192 -509 342 -769 975
-644 1568 27 126 6185 21672 6221 21766 137 353 406 646 752 817 261 128 564
183 833 149z m-11473 -5380 c638 -87 1156 -562 1293 -1188 96 -435 -1 -889
-268 -1251 -35 -48 -853 -874 -2246 -2268 l-2191 -2192 2206 -2208 c1911
-1912 2214 -2219 2266 -2297 359 -535 360 -1196 2 -1735 -80 -122 -271 -314
-394 -397 -180 -121 -400 -211 -610 -249 -136 -24 -384 -24 -520 0 -131 24
-307 82 -425 141 -227 114 -33 -73 -3086 2979 -2629 2629 -2816 2818 -2877
2911 -194 296 -278 613 -255 969 13 206 66 395 165 588 116 228 -47 59 2967
3074 2158 2157 2810 2803 2873 2848 200 140 430 234 668 271 100 16 329 18
432 4z m16948 -14 c128 -22 293 -76 414 -135 236 -115 26 86 3097 -2984 3076
-3076 2873 -2865 2984 -3099 105 -219 150 -422 151 -669 0 -337 -88 -615 -283
-894 -51 -73 -548 -575 -2812 -2842 -1513 -1514 -2785 -2782 -2826 -2816 -198
-167 -435 -280 -697 -333 -135 -27 -463 -25 -596 5 -548 122 -974 500 -1146
1017 -157 475 -74 993 226 1404 37 50 799 820 2246 2268 l2192 2193 -2181
2182 c-1493 1495 -2200 2209 -2242 2266 -206 278 -312 591 -312 924 0 433 164
819 473 1114 249 238 547 373 927 418 66 8 295 -3 385 -19z"/>
</g>
</svg>
